<?xml version="1.0" standalone="no"?>
<!DOCTYPE svg PUBLIC "-//W3C//DTD SVG 20010904//EN"
 "http://www.w3.org/TR/2001/REC-SVG-20010904/DTD/svg10.dtd">
<svg version="1.0" xmlns="http://www.w3.org/2000/svg"
 width="260.000000pt" height="260.000000pt" viewBox="0 0 260.000000 260.000000"
 preserveAspectRatio="xMidYMid meet">
<metadata>
Created by potrace 1.14, written by Peter Selinger 2001-2017
</metadata>
<g transform="translate(0.000000,260.000000) scale(0.100000,-0.100000)"
fill="#000000" stroke="none">
<path d="M0 1300 l0 -1300 1300 0 1300 0 0 1300 0 1300 -1300 0 -1300 0 0
-1300z m2430 0 l0 -1130 -1130 0 -1130 0 0 1130 0 1130 1130 0 1130 0 0 -1130z"/>
<path d="M1875 2289 c-40 -12 -58 -27 -84 -69 -52 -86 -5 -193 97 -219 150
-41 262 129 161 244 -43 49 -107 65 -174 44z"/>
<path d="M857 1880 c-66 -12 -166 -60 -217 -106 -60 -54 -117 -145 -143 -229
-28 -92 -30 -270 -3 -359 60 -198 195 -326 378 -357 130 -21 271 21 361 109
l47 46 0 -72 0 -72 130 0 130 0 0 515 0 515 -130 0 -130 0 0 -68 0 -69 -44 42
c-93 90 -234 129 -379 105z m234 -236 c73 -22 151 -100 173 -175 20 -67 20
-161 0 -229 -30 -101 -149 -190 -254 -190 -50 0 -126 30 -168 66 -65 56 -95
122 -100 224 -5 103 19 177 74 234 76 78 167 102 275 70z"/>
<path d="M1800 1255 c0 -429 -3 -621 -11 -638 -15 -33 -49 -47 -114 -47 l-55
0 0 -110 0 -110 92 0 c170 0 268 50 319 162 l24 53 3 653 3 652 -131 0 -130 0
0 -615z"/>
</g>
</svg>
