<svg xmlns="http://www.w3.org/2000/svg" xmlns:xlink="http://www.w3.org/1999/xlink" width="1920" height="1080" viewBox="0 0 1920 1080"><defs><clipPath id="a"><path d="M279.63,518.49A209.746,209.746,0,0,0,481.509,365.81c5.084-18.069,83.926-77.643,83.926-97.336C565.435,152.772,395.435,0,279.63,0S-77.453,468.718,24.578,518.49c60.94,29.728,100.917-67.016,109.045-59.136A209.087,209.087,0,0,0,279.63,518.49Z" transform="translate(0)" fill="none"/></clipPath><clipPath id="b"><path d="M128.87,30.647c1.1-3.226,8.593-13.221-4.753-22.743-2.4-1.711-6.36-.006-9.793-1.086-2.583-.813-3.454-4.482-6.414-5.122-3.072-.664-6.418,2.346-9.889,2.081C95.893,3.615,92.611.239,90.4.058c-3.953-.325-7.545,3.475-11.405,3.72-2.238.142-4.835-3.526-7.057-3.72C66.528-.415,61.6,2.152,56.839,2.93c-4.391.717-6.433,9.881-9.667,12.046-10.15,6.8-18.1,8.7-26.339,15.671C11.042,38.938,9.168,45.107,5.112,50.632S-1.449,75.623.916,88.1c1.4,7.359,5.031,27.457,13.154,35.238,11.118,10.65,33.737,13.806,35.745,12.385,9.3-6.581,30.145-42.98,44.929-55.845C105.617,70.417,122.059,50.632,128.87,30.647Z" fill="#ff9b21"/></clipPath><clipPath id="d"><rect width="1920" height="1080"/></clipPath></defs><g id="c" clip-path="url(#d)"><rect width="1920" height="1080" fill="#fff"/><path d="M2376,0H143L-473,1084H2376Z" transform="translate(2376 1084) rotate(-180)" fill="#2026a2"/><g transform="translate(1686.515 165)"><path d="M0,43.643,33.485,7.835a13.779,13.779,0,0,1,20.407,0l89.146,95.332a31.956,31.956,0,0,1,8.447,21.805V756.449" transform="translate(60 12)" fill="none" stroke="#cbcbcb" stroke-miterlimit="10" stroke-width="8"/><rect width="59" height="7" rx="3" transform="translate(181.485 767)" fill="#afb9c5"/><g transform="translate(47.833 2) rotate(45)"><path d="M35.5,0H61.947a35.5,35.5,0,0,1,35.5,35.5V61a0,0,0,0,1,0,0H0a0,0,0,0,1,0,0V35.5A35.5,35.5,0,0,1,35.5,0Z" fill="#c5cfd6"/><ellipse cx="48.724" cy="6.5" rx="48.724" ry="6.5" transform="translate(0.264 53.562)" fill="#f2f2f2"/></g></g><g transform="translate(931.696 292.223)"><ellipse cx="231.796" cy="231.592" rx="231.796" ry="231.592" transform="translate(85.994 68.337)" fill="rgba(145,255,189,0.7)"/><path d="M279.63,518.49A209.746,209.746,0,0,0,481.509,365.81c5.084-18.069,83.926-77.643,83.926-97.336C565.435,152.772,395.435,0,279.63,0S-77.453,468.718,24.578,518.49c60.94,29.727,100.917-67.016,109.045-59.136A209.087,209.087,0,0,0,279.63,518.49Z" transform="translate(0.304 0.033)" fill="none"/><g transform="translate(0.304 0.033)" clip-path="url(#a)"><g transform="translate(-41.476 -41.525)"><g transform="translate(208.551)"><g transform="translate(137.338 80.285)"><path d="M0,189.057,21.013,89.322C9.3,75.315,1.362,58.147,2.687,38.913,6.508-16.51,82.273-4.317,97.009,23.655S110,122.583,90.95,127.583c-7.6,1.994-23.778-2.89-40.248-13L61.04,189.057Z" transform="translate(0 0)" fill="#784931"/></g><g transform="translate(103.633 57.539)"><path d="M128.87,30.647c1.1-3.226,8.593-13.221-4.753-22.743-2.4-1.711-6.36-.006-9.793-1.086-2.583-.813-3.454-4.482-6.414-5.122-3.072-.664-6.418,2.346-9.889,2.081C95.893,3.615,92.611.239,90.4.058c-3.953-.325-7.545,3.475-11.405,3.72-2.238.142-4.835-3.526-7.057-3.72C66.528-.415,61.6,2.152,56.839,2.93c-4.391.717-6.433,9.881-9.667,12.046-10.15,6.8-18.1,8.7-26.339,15.671C11.042,38.938,9.168,45.107,5.112,50.632S-1.449,75.623.916,88.1c1.4,7.359,5.031,27.457,13.154,35.238,11.118,10.65,33.737,13.806,35.745,12.385,9.3-6.581,30.145-42.98,44.929-55.845C105.617,70.417,122.059,50.632,128.87,30.647Z" transform="translate(0 0)" fill="#ff9b21"/><g transform="translate(0 0)" clip-path="url(#b)"><path d="M25.923,57C32.041,34.909,37.995.8,37.995.8L45.512,0S33.069,53.453,26.22,74.86c-4.629,14.466-8.4,26.722-11.643,36.754,6.677-15.058,15.263-34.379,23.028-54.2C45.958,36.1,55.379,2.811,55.379,2.811h7.558s-17.861,51.836-26.87,72.4c-9.659,22.043-16.6,38.784-22.129,50.022a611.312,611.312,0,0,0,38.7-66.716C61.278,41.263,72.982,5.68,72.982,5.68l7.034,3.065S62.3,53.78,52.639,71.557C31.647,110.184,11.605,133.49,4.6,140.1c-1.212,1.144-1.618,1.411-1.328.825a.277.277,0,0,1-.213-.176,18.713,18.713,0,0,1-1.474,2c-.558.65-.96.963-1.219.963C-2.652,143.713,13.652,101.307,25.923,57Z" transform="translate(39.366 -3.823)" fill="rgba(0,0,0,0.2)"/></g></g></g><g transform="translate(0 484.298)"><path d="M282.578,6.919C233,47.232,248.742,396.861,245.418,401.293,243.2,404.248,10.9,453.244,10.9,453.244l6.442,27.016S288.72,464.578,304.7,444.433c22.88-28.841,58.689-320.92,58.689-320.92Z" transform="matrix(0.574, -0.819, 0.819, 0.574, 128.914, 227.505)" fill="#b28b67"/><path d="M10.622,441.531,22,485.034c134.671,14.239,223.7-5.557,255.232-35.393S336.062,129.59,336.062,129.59L249.6,6.112C131.644,94.985,199.049,382.067,196,388.675S121.811,401.091,10.622,441.531Z" transform="matrix(0.574, -0.819, 0.819, 0.574, 145.466, 201.112)" fill="#2f3676"/><g transform="translate(512.638 409.332) rotate(20)"><path d="M4.474,5.033A2,2,0,0,0,1.908,6.381L0,13.106A64.242,64.242,0,0,0,.9,21H57.3s2.2-7.268-2.538-7.848-7.87-1.047-7.87-1.047L20.68.419a1,1,0,0,0-1.332.532L17.663,5.039s-4.385,2.046-7.127,2.046Z" transform="translate(1 19)" fill="#e4e4e4"/></g><path d="M260.954,0,129.348,321.726,0,593.719H30.517L364.4,0Z" transform="translate(69.676)" fill="#997659"/><g transform="translate(61.039 515.376)"><path d="M11.378,12.507A5.071,5.071,0,0,0,4.854,16L0,33.414c0,7.005,2.292,20.445,2.292,20.445H145.739s5.592-18.823-6.455-20.324-20.015-2.71-20.015-2.71L52.6.557a2.527,2.527,0,0,0-3.387,1.378L44.923,12.522s-11.152,5.3-18.125,5.3Z" transform="translate(2.543 49.734)" fill="#e4e4e4"/></g><path d="M0,537.216l67.81,12.949C120.24,471.672,339.664,149.826,363.722,0H212.761C132.421,108.309,49.977,457.425,0,537.216Z" transform="translate(81.357 0)" fill="#5c63ab"/></g><g transform="translate(55.953 212.366)"><path d="M80.849,301.113c-3.468-5.939-7.409-11.876-19.385-8.848-21.37,5.405-39.492,19.274-59.419.569-2.449-2.3-4.244-9.487,4.111-13.174C26.966,270.474,57.712,253.277,62.7,246.6q10.2-13.66,63.217-155.955l52.118,10.528q-78.619,149.2-84.324,158.148c-8.558,13.428-.572,38.037,2.376,51a15.783,15.783,0,0,1-3.628.462C86.183,310.78,83.673,305.947,80.849,301.113ZM498.488,79.293l92.154-41.212Q614.859,13.51,637.411.73c4.5-1.457,12.175-1.9,3.981,10.291s-16.275,25.383-13,29.653,12.759-.443,16.506,6.5q3.749,6.947-47.963,16.619L527.913,117.68Z" transform="translate(5.087 121.722)" fill="#b28b67"/><path d="M-.026,5.649,21.548-.094c51.843,42.962,81.224,154.5,114.336,166.709,31.307,11.542,72.729-5.9,121.772-28.852l18.6,33.942c-41.6,54.739-135.913,106.163-177.8,85.182C31.482,223.343,4.591,84.957-.026,5.649Z" transform="matrix(0.996, 0.087, -0.087, 0.996, 325.285, 8.184)" fill="#1f28cf"/><path d="M0,295.241H194.592c8.892,0,7.216-13.074,5.931-19.672-14.835-76.142-72.744-158.22-72.744-266.606L71.649,0C25.223,76.033,9.168,169.646,0,295.241Z" transform="translate(228.897)" fill="#dde3e9"/><path d="M0,367.39Q39.409,118.5,228.256,0H250.48s75.584,262.365,41.675,349.627H116.992c2.772-42.57,11.657-87.585,23.829-131.479q-59.5,109.3-100.033,157.377Z" transform="translate(68.669)" fill="#2b44ff"/></g></g></g></g><g transform="translate(1459.706 358)"><rect width="413" height="318" rx="8" transform="translate(0.294)" fill="#f2f2f2"/><path d="M8,0H405a8,8,0,0,1,8,8V25a0,0,0,0,1,0,0H0a0,0,0,0,1,0,0V8A8,8,0,0,1,8,0Z" transform="translate(0.294)" fill="#c5cfd6"/><g transform="translate(9.294 10)"><circle cx="4" cy="4" r="4" fill="#f2f2f2"/><circle cx="4" cy="4" r="4" transform="translate(12)" fill="#f2f2f2"/><circle cx="4" cy="4" r="4" transform="translate(24)" fill="#f2f2f2"/></g><g transform="translate(308.294 121.318)"><rect width="85" height="179" rx="8" transform="translate(0 -0.318)" fill="#fff"/><g transform="translate(18 18)"><rect width="49" height="24" rx="4" transform="translate(0 -0.318)" fill="#dde3e9"/><rect width="49" height="23" rx="4" transform="translate(0 31.682)" fill="#afb9c5"/><rect width="49" height="23" rx="4" transform="translate(0 61.682)" fill="#dde3e9"/><rect width="49" height="23" rx="4" transform="translate(0 122.682)" fill="#dde3e9"/><rect width="49" height="23" rx="4" transform="translate(0 91.682)" fill="#c5cfd6"/></g></g><g transform="translate(16.294 44)"><rect width="377" height="43" rx="4" fill="#fff"/><g transform="translate(8.706 12.959)"><rect width="319.635" height="6.479" rx="3" fill="#dde3e9"/><rect width="214.55" height="6.479" rx="3" transform="translate(0 10.799)" fill="#dde3e9"/></g><g transform="translate(334.135 14.598)"><circle cx="7" cy="7" r="7" fill="#dde3e9"/><circle cx="3" cy="3" r="3" transform="translate(4 4)" fill="#f2f2f2"/></g><g transform="translate(0 51)"><rect width="377" height="35" rx="4" fill="#fff"/><g transform="translate(8.706 10.302)"><rect width="319.635" height="5.377" rx="2.688" fill="#dde3e9"/><rect width="214.55" height="5.377" rx="2.688" transform="translate(0 8.961)" fill="#dde3e9"/></g><g transform="translate(334.135 10.471)"><circle cx="7" cy="7" r="7" fill="#dde3e9"/><circle cx="3" cy="3" r="3" transform="translate(4 4)" fill="#f2f2f2"/></g></g><g transform="translate(0 94)"><rect width="377" height="36" rx="4" fill="#fff"/><g transform="translate(8.706 10.499)"><rect width="319.635" height="5.377" rx="2.688" fill="#dde3e9"/><rect width="214.55" height="5.377" rx="2.688" transform="translate(0 8.961)" fill="#dde3e9"/></g><g transform="translate(334.135 10.668)"><circle cx="7" cy="7" r="7" fill="#dde3e9"/><circle cx="3" cy="3" r="3" transform="translate(4 4)" fill="#afb9c5"/></g></g><g transform="translate(0 223)"><rect width="377" height="36" rx="4" fill="#fff"/><g transform="translate(8.706 11.088)"><rect width="319.635" height="5.377" rx="2.688" fill="#dde3e9"/><rect width="214.55" height="5.377" rx="2.688" transform="translate(0 8.961)" fill="#dde3e9"/></g><g transform="translate(334.135 11.257)"><circle cx="7" cy="7" r="7" fill="#dde3e9"/><circle cx="3" cy="3" r="3" transform="translate(4 4)" fill="#f2f2f2"/></g></g><g transform="translate(0 180)"><rect width="377" height="36" rx="4" fill="#fff"/><g transform="translate(8.706 10.892)"><rect width="319.635" height="5.377" rx="2.688" fill="#dde3e9"/><rect width="214.55" height="5.377" rx="2.688" transform="translate(0 8.961)" fill="#dde3e9"/></g><g transform="translate(334.135 11.061)"><circle cx="7" cy="7" r="7" fill="#dde3e9"/><circle cx="3" cy="3" r="3" transform="translate(4 4)" fill="#f2f2f2"/></g></g><g transform="translate(0 137)"><rect width="377" height="36" rx="4" fill="#fff"/><g transform="translate(8.706 10.695)"><rect width="319.635" height="5.377" rx="2.688" fill="#dde3e9"/><rect width="214.55" height="5.377" rx="2.688" transform="translate(0 8.961)" fill="#dde3e9"/></g><g transform="translate(334.135 10.864)"><circle cx="7" cy="7" r="7" fill="#dde3e9"/><circle cx="3" cy="3" r="3" transform="translate(4 4)" fill="#f2f2f2"/></g></g></g></g><g transform="translate(1645.283 502)"><rect width="135" height="263" rx="8" transform="translate(47.717)" fill="#dde3e9"/><ellipse cx="15" cy="12.5" rx="15" ry="12.5" transform="translate(99.717 229)" fill="#fff"/><g transform="translate(99.717 13.906)"><circle cx="2" cy="2" r="2" transform="translate(0 0.094)" fill="#fff"/><rect width="21" height="4" rx="2" transform="translate(9 0.094)" fill="#fff"/></g><g transform="translate(61.717 20)"><rect width="107" height="52" rx="4" fill="#fff"/><g transform="translate(9.283 15.614)"><rect width="48.717" height="7.807" rx="3" fill="#dde3e9"/><rect width="32.7" height="7.807" rx="3" transform="translate(0 13.012)" fill="#dde3e9"/></g><g transform="translate(87 19.584)"><circle cx="7" cy="7" r="7" transform="translate(0 0.416)" fill="#dde3e9"/><circle cx="3" cy="3" r="3" transform="translate(4 4.416)" fill="#f2f2f2"/></g><g transform="translate(0 59.764)"><rect width="107" height="41" rx="4" transform="translate(0 0.236)" fill="#fff"/><g transform="translate(39.283 12.137)"><rect width="48.717" height="6.072" rx="3" fill="#dde3e9"/><rect width="32.7" height="6.072" rx="3" transform="translate(0 10.12)" fill="#dde3e9"/></g><circle cx="12" cy="12" r="12" transform="translate(9 8.236)" fill="#c5cfd6"/></g><g transform="translate(0 108.461)"><rect width="107" height="40" rx="4" transform="translate(0 -0.461)" fill="#fff"/><g transform="translate(9.283 11.631)"><rect width="48.717" height="6.072" rx="3" fill="#dde3e9"/><rect width="32.7" height="6.072" rx="3" transform="translate(0 10.12)" fill="#afb9c5"/></g><g transform="translate(87 12.921)"><circle cx="7" cy="7" r="7" transform="translate(0 -0.382)" fill="#dde3e9"/><circle cx="3" cy="3" r="3" transform="translate(4 3.618)" fill="#f2f2f2"/></g></g><g transform="translate(0 156.051)"><rect width="107" height="41" rx="4" transform="translate(0 -0.051)" fill="#fff"/><g transform="translate(39.283 12.232)"><rect width="48.717" height="6.072" rx="3" fill="#dde3e9"/><rect width="32.7" height="6.072" rx="3" transform="translate(0 10.12)" fill="#dde3e9"/></g><circle cx="12" cy="12" r="12" transform="translate(9 7.949)" fill="#c5cfd6"/></g></g></g></g></svg>