<svg xmlns="http://www.w3.org/2000/svg" xmlns:xlink="http://www.w3.org/1999/xlink" width="1920" height="1080" viewBox="0 0 1920 1080"><defs><clipPath id="b"><rect width="1920" height="1080"/></clipPath></defs><g id="a" clip-path="url(#b)"><rect width="1920" height="1080" fill="#fff"/><path d="M2376,0H143L-473,1084H2376Z" transform="translate(2376 1084) rotate(-180)" fill="#0f0f0f"/><ellipse cx="106" cy="93" rx="106" ry="93" transform="translate(-147 277)" fill="rgba(255,65,51,0.89)"/><g transform="translate(773 175)" stroke="#e5c101" stroke-width="6"><circle cx="16" cy="16" r="16" stroke="none"/><circle cx="16" cy="16" r="13" fill="none"/></g><rect width="170.202" height="532" rx="85.101" transform="translate(1196.302 426.042) rotate(-42)" fill="#ff4133"/><path d="M68.149,0A68.149,68.149,0,0,1,136.3,68.149v168.7a68.149,68.149,0,1,1-136.3,0V68.149A68.149,68.149,0,0,1,68.149,0Z" transform="translate(1099.391 538.592) rotate(-42)" fill="#f7b50d"/><rect width="136.713" height="305" rx="68.356" transform="translate(1374.764 350.084) rotate(-42)" fill="#1f28cf"/><g transform="translate(1253.048 517.558)"><rect width="104" height="205" rx="8" transform="translate(47.717)" fill="#dde3e9"/><ellipse cx="15" cy="12.5" rx="15" ry="12.5" transform="translate(84.717 173)" fill="#fff"/><g transform="translate(84.717 10.487)"><circle cx="2" cy="2" r="2" transform="translate(0 -0.487)" fill="#fff"/><rect width="21" height="4" rx="2" transform="translate(9 -0.487)" fill="#fff"/></g><g transform="translate(61.717 20)"><rect width="76" height="40" rx="4" fill="#fff"/><g transform="translate(9.283 12.175)"><rect width="17.231" height="6.088" rx="3" fill="#dde3e9"/><rect width="11.566" height="6.088" rx="3" transform="translate(0 10.146)" fill="#dde3e9"/></g><g transform="translate(58 13.971)"><circle cx="7" cy="7" r="7" transform="translate(0 0.028)" fill="#dde3e9"/><circle cx="3" cy="3" r="3" transform="translate(4 4.028)" fill="#f2f2f2"/></g><g transform="translate(0 46.432)"><rect width="76" height="33" rx="4" transform="translate(0 -0.431)" fill="#fff"/><g transform="translate(39.283 9.635)"><rect width="17.231" height="4.735" rx="2.367" fill="#dde3e9"/><rect width="11.566" height="4.735" rx="2.367" transform="translate(0 7.891)" fill="#dde3e9"/></g><circle cx="12" cy="12" r="12" transform="translate(9 3.569)" fill="#c5cfd6"/></g><g transform="translate(0 84.103)"><rect width="76" height="32" rx="4" transform="translate(0 -0.103)" fill="#fff"/><g transform="translate(9.283 9.541)"><rect width="17.231" height="4.735" rx="2.367" fill="#dde3e9"/><rect width="11.566" height="4.735" rx="2.367" transform="translate(0 7.891)" fill="#afb9c5"/></g><g transform="translate(58 8.769)"><circle cx="7" cy="7" r="7" transform="translate(0 0.128)" fill="#dde3e9"/><circle cx="3" cy="3" r="3" transform="translate(4 4.128)" fill="#f2f2f2"/></g></g><g transform="translate(0 121.774)"><rect width="76" height="31" rx="4" transform="translate(0 0.226)" fill="#fff"/><g transform="translate(39.283 9.448)"><rect width="17.231" height="4.735" rx="2.367" fill="#dde3e9"/><rect width="11.566" height="4.735" rx="2.367" transform="translate(0 7.891)" fill="#dde3e9"/></g><circle cx="12" cy="12" r="12" transform="translate(9 4.226)" fill="#c5cfd6"/></g></g></g><g transform="translate(1404.471 406.743)"><rect width="388" height="261" rx="8" transform="translate(0.294)" fill="#f2f2f2"/><path d="M8,0H380a8,8,0,0,1,8,8V21a0,0,0,0,1,0,0H0a0,0,0,0,1,0,0V8A8,8,0,0,1,8,0Z" transform="translate(0.294)" fill="#c5cfd6"/><ellipse cx="4" cy="3" rx="4" ry="3" transform="translate(8.294 9)" fill="#f7c700"/><ellipse cx="3.5" cy="3" rx="3.5" ry="3" transform="translate(20.294 9)" fill="#f36"/><ellipse cx="4" cy="3" rx="4" ry="3" transform="translate(31.294 9)" fill="#2b44ff"/><g transform="translate(289.294 99.387)"><rect width="80" height="147" rx="8" transform="translate(0 -0.387)" fill="#fff"/><g transform="translate(18 18)"><rect width="44" height="20" rx="4" transform="translate(0 -0.387)" fill="#dde3e9"/><rect width="44" height="19" rx="4" transform="translate(0 25.613)" fill="#afb9c5"/><rect width="44" height="19" rx="4" transform="translate(0 50.613)" fill="#dde3e9"/><rect width="44" height="19" rx="4" transform="translate(0 101.613)" fill="#dde3e9"/><rect width="44" height="19" rx="4" transform="translate(0 75.613)" fill="#c5cfd6"/></g></g><g transform="translate(16.294 44)"><rect width="352" height="35" rx="4" fill="#fff"/><g transform="translate(8.706 10.648)"><rect width="294.574" height="5.324" rx="2.662" fill="#dde3e9"/><rect width="197.728" height="5.324" rx="2.662" transform="translate(0 8.873)" fill="#dde3e9"/></g><g transform="translate(311.066 10.742)"><circle cx="7" cy="7" r="7" fill="#dde3e9"/><circle cx="3" cy="3" r="3" transform="translate(4 4)" fill="#f2f2f2"/></g><g transform="translate(0 41.484)"><rect width="352" height="30" rx="4" transform="translate(0 -0.483)" fill="#fff"/><g transform="translate(8.706 8.886)"><rect width="294.574" height="4.418" rx="2.209" fill="#dde3e9"/><rect width="197.728" height="4.418" rx="2.209" transform="translate(0 7.363)" fill="#dde3e9"/></g><g transform="translate(311.066 7.768)"><circle cx="7" cy="7" r="7" fill="#dde3e9"/><circle cx="3" cy="3" r="3" transform="translate(4 4)" fill="#f2f2f2"/></g></g><g transform="translate(0 76.917)"><rect width="352" height="30" rx="4" transform="translate(0 0.083)" fill="#fff"/><g transform="translate(8.706 8.945)"><rect width="294.574" height="4.418" rx="2.209" fill="#dde3e9"/><rect width="197.728" height="4.418" rx="2.209" transform="translate(0 7.363)" fill="#dde3e9"/></g><g transform="translate(311.066 7.874)"><circle cx="7" cy="7" r="7" fill="#dde3e9"/><circle cx="3" cy="3" r="3" transform="translate(4 4)" fill="#afb9c5"/></g></g><g transform="translate(0 183.218)"><rect width="352" height="30" rx="4" transform="translate(0 -0.218)" fill="#fff"/><g transform="translate(8.706 9.123)"><rect width="294.574" height="4.418" rx="2.209" fill="#dde3e9"/><rect width="197.728" height="4.418" rx="2.209" transform="translate(0 7.363)" fill="#dde3e9"/></g><g transform="translate(311.066 7.972)"><circle cx="7" cy="7" r="7" fill="#dde3e9"/><circle cx="3" cy="3" r="3" transform="translate(4 4)" fill="#f2f2f2"/></g></g><g transform="translate(0 147.785)"><rect width="352" height="29" rx="4" transform="translate(0 0.215)" fill="#fff"/><g transform="translate(8.706 9.063)"><rect width="294.574" height="4.418" rx="2.209" fill="#dde3e9"/><rect width="197.728" height="4.418" rx="2.209" transform="translate(0 7.363)" fill="#dde3e9"/></g><g transform="translate(311.066 7.923)"><circle cx="7" cy="7" r="7" fill="#dde3e9"/><circle cx="3" cy="3" r="3" transform="translate(4 4)" fill="#f2f2f2"/></g></g><g transform="translate(0 112.351)"><rect width="352" height="30" rx="4" transform="translate(0 -0.351)" fill="#fff"/><g transform="translate(8.706 9.004)"><rect width="294.574" height="4.418" rx="2.209" fill="#dde3e9"/><rect width="197.728" height="4.418" rx="2.209" transform="translate(0 7.363)" fill="#dde3e9"/></g><g transform="translate(311.066 7.876)"><circle cx="7" cy="7" r="7" fill="#dde3e9"/><circle cx="3" cy="3" r="3" transform="translate(4 4)" fill="#f2f2f2"/></g></g></g></g><path d="M26.468,82.564c14.611,3.348,15.2-12.525,15.2-33.6s2.913-45.251-11.7-48.6S-.007,17.266,0,38.342,11.857,79.217,26.468,82.564Z" transform="matrix(-0.809, 0.588, -0.588, -0.809, 1099.391, 515.373)" fill="#9a9a9a"/></g></svg>