<svg xmlns="http://www.w3.org/2000/svg" xmlns:xlink="http://www.w3.org/1999/xlink" width="1920" height="1080" viewBox="0 0 1920 1080"><defs><clipPath id="b"><rect width="1920" height="1080"/></clipPath></defs><g id="a" clip-path="url(#b)"><rect width="1920" height="1080" fill="#ff1200"/><path d="M1037.917,0H-146.315L-473,1084H1037.917Z" transform="translate(2037.652 1081) rotate(180)"/><ellipse cx="190.5" cy="191.5" rx="190.5" ry="191.5" transform="translate(1269 357)" fill="#f4d9d8"/><g transform="translate(1553.026 249.658)"><path d="M155.485,655.817h-8v-547.1a21.637,21.637,0,0,0-7.166-15.957L51.173,10.166a11.2,11.2,0,0,0-14.97,0L2.719,41.189l-5.437-5.868L30.766,4.3a19.339,19.339,0,0,1,25.844,0l89.146,82.594a29.95,29.95,0,0,1,9.728,21.826Z" transform="translate(60 12)" fill="#cbcbcb"/><rect width="59" height="7" rx="3" transform="translate(181.485 666.367)" fill="#afb9c5"/><g transform="translate(31.833 15.316) rotate(45)"><path d="M35.5,0H61.947a35.5,35.5,0,0,1,35.5,35.5V61a0,0,0,0,1,0,0H0a0,0,0,0,1,0,0V35.5A35.5,35.5,0,0,1,35.5,0Z" fill="#c5cfd6"/><ellipse cx="48.724" cy="6.5" rx="48.724" ry="6.5" transform="translate(0.264 53.562)" fill="#f2f2f2"/></g></g><g transform="translate(1314.471 409.743)"><rect width="388" height="261" rx="8" transform="translate(0.294)" fill="#f2f2f2"/><path d="M8,0H380a8,8,0,0,1,8,8V21a0,0,0,0,1,0,0H0a0,0,0,0,1,0,0V8A8,8,0,0,1,8,0Z" transform="translate(0.294)" fill="#c5cfd6"/><ellipse cx="4" cy="3" rx="4" ry="3" transform="translate(8.294 9)" fill="#f7c700"/><ellipse cx="3.5" cy="3" rx="3.5" ry="3" transform="translate(20.294 9)" fill="#f36"/><ellipse cx="4" cy="3" rx="4" ry="3" transform="translate(31.294 9)" fill="#2b44ff"/><g transform="translate(289.294 99.387)"><rect width="80" height="147" rx="8" transform="translate(0 -0.387)" fill="#fff"/><g transform="translate(18 18)"><rect width="44" height="20" rx="4" transform="translate(0 -0.387)" fill="#dde3e9"/><rect width="44" height="19" rx="4" transform="translate(0 25.613)" fill="#afb9c5"/><rect width="44" height="19" rx="4" transform="translate(0 50.613)" fill="#dde3e9"/><rect width="44" height="19" rx="4" transform="translate(0 101.613)" fill="#dde3e9"/><rect width="44" height="19" rx="4" transform="translate(0 75.613)" fill="#c5cfd6"/></g></g><g transform="translate(16.294 44)"><rect width="352" height="35" rx="4" fill="#fff"/><g transform="translate(8.706 10.648)"><rect width="294.574" height="5.324" rx="2.662" fill="#dde3e9"/><rect width="197.728" height="5.324" rx="2.662" transform="translate(0 8.873)" fill="#dde3e9"/></g><g transform="translate(311.066 10.742)"><circle cx="7" cy="7" r="7" fill="#dde3e9"/><circle cx="3" cy="3" r="3" transform="translate(4 4)" fill="#f2f2f2"/></g><g transform="translate(0 41.484)"><rect width="352" height="30" rx="4" transform="translate(0 -0.483)" fill="#fff"/><g transform="translate(8.706 8.886)"><rect width="294.574" height="4.418" rx="2.209" fill="#dde3e9"/><rect width="197.728" height="4.418" rx="2.209" transform="translate(0 7.363)" fill="#dde3e9"/></g><g transform="translate(311.066 7.768)"><circle cx="7" cy="7" r="7" fill="#dde3e9"/><circle cx="3" cy="3" r="3" transform="translate(4 4)" fill="#f2f2f2"/></g></g><g transform="translate(0 76.917)"><rect width="352" height="30" rx="4" transform="translate(0 0.083)" fill="#fff"/><g transform="translate(8.706 8.945)"><rect width="294.574" height="4.418" rx="2.209" fill="#dde3e9"/><rect width="197.728" height="4.418" rx="2.209" transform="translate(0 7.363)" fill="#dde3e9"/></g><g transform="translate(311.066 7.874)"><circle cx="7" cy="7" r="7" fill="#dde3e9"/><circle cx="3" cy="3" r="3" transform="translate(4 4)" fill="#afb9c5"/></g></g><g transform="translate(0 183.218)"><rect width="352" height="30" rx="4" transform="translate(0 -0.218)" fill="#fff"/><g transform="translate(8.706 9.123)"><rect width="294.574" height="4.418" rx="2.209" fill="#dde3e9"/><rect width="197.728" height="4.418" rx="2.209" transform="translate(0 7.363)" fill="#dde3e9"/></g><g transform="translate(311.066 7.972)"><circle cx="7" cy="7" r="7" fill="#dde3e9"/><circle cx="3" cy="3" r="3" transform="translate(4 4)" fill="#f2f2f2"/></g></g><g transform="translate(0 147.785)"><rect width="352" height="29" rx="4" transform="translate(0 0.215)" fill="#fff"/><g transform="translate(8.706 9.063)"><rect width="294.574" height="4.418" rx="2.209" fill="#dde3e9"/><rect width="197.728" height="4.418" rx="2.209" transform="translate(0 7.363)" fill="#dde3e9"/></g><g transform="translate(311.066 7.923)"><circle cx="7" cy="7" r="7" fill="#dde3e9"/><circle cx="3" cy="3" r="3" transform="translate(4 4)" fill="#f2f2f2"/></g></g><g transform="translate(0 112.351)"><rect width="352" height="30" rx="4" transform="translate(0 -0.351)" fill="#fff"/><g transform="translate(8.706 9.004)"><rect width="294.574" height="4.418" rx="2.209" fill="#dde3e9"/><rect width="197.728" height="4.418" rx="2.209" transform="translate(0 7.363)" fill="#dde3e9"/></g><g transform="translate(311.066 7.876)"><circle cx="7" cy="7" r="7" fill="#dde3e9"/><circle cx="3" cy="3" r="3" transform="translate(4 4)" fill="#f2f2f2"/></g></g></g></g><g transform="translate(1169.048 550.558)"><rect width="104" height="205" rx="8" transform="translate(47.717)" fill="#dde3e9"/><ellipse cx="15" cy="12.5" rx="15" ry="12.5" transform="translate(84.717 173)" fill="#fff"/><g transform="translate(84.717 10.487)"><circle cx="2" cy="2" r="2" transform="translate(0 -0.487)" fill="#fff"/><rect width="21" height="4" rx="2" transform="translate(9 -0.487)" fill="#fff"/></g><g transform="translate(61.717 20)"><rect width="76" height="40" rx="4" fill="#fff"/><g transform="translate(9.283 12.175)"><rect width="17.231" height="6.088" rx="3" fill="#dde3e9"/><rect width="11.566" height="6.088" rx="3" transform="translate(0 10.146)" fill="#dde3e9"/></g><g transform="translate(58 13.971)"><circle cx="7" cy="7" r="7" transform="translate(0 0.028)" fill="#dde3e9"/><circle cx="3" cy="3" r="3" transform="translate(4 4.028)" fill="#f2f2f2"/></g><g transform="translate(0 46.432)"><rect width="76" height="33" rx="4" transform="translate(0 -0.431)" fill="#fff"/><g transform="translate(39.283 9.635)"><rect width="17.231" height="4.735" rx="2.367" fill="#dde3e9"/><rect width="11.566" height="4.735" rx="2.367" transform="translate(0 7.891)" fill="#dde3e9"/></g><circle cx="12" cy="12" r="12" transform="translate(9 3.569)" fill="#c5cfd6"/></g><g transform="translate(0 84.103)"><rect width="76" height="32" rx="4" transform="translate(0 -0.103)" fill="#fff"/><g transform="translate(9.283 9.541)"><rect width="17.231" height="4.735" rx="2.367" fill="#dde3e9"/><rect width="11.566" height="4.735" rx="2.367" transform="translate(0 7.891)" fill="#afb9c5"/></g><g transform="translate(58 8.769)"><circle cx="7" cy="7" r="7" transform="translate(0 0.128)" fill="#dde3e9"/><circle cx="3" cy="3" r="3" transform="translate(4 4.128)" fill="#f2f2f2"/></g></g><g transform="translate(0 121.774)"><rect width="76" height="31" rx="4" transform="translate(0 0.226)" fill="#fff"/><g transform="translate(39.283 9.448)"><rect width="17.231" height="4.735" rx="2.367" fill="#dde3e9"/><rect width="11.566" height="4.735" rx="2.367" transform="translate(0 7.891)" fill="#dde3e9"/></g><circle cx="12" cy="12" r="12" transform="translate(9 4.226)" fill="#c5cfd6"/></g></g></g><path d="M796.769,0H-198.455L-473,1084H796.769Z" transform="translate(202.967 -3)" fill="#ff1200"/><circle cx="87.5" cy="87.5" r="87.5" transform="translate(1328 665)" fill="#ff1200"/><ellipse cx="60" cy="61.5" rx="60" ry="61.5" transform="translate(1509 779)" fill="#ff9b21"/></g></svg>