<svg xmlns="http://www.w3.org/2000/svg" xmlns:xlink="http://www.w3.org/1999/xlink" width="1920" height="1080" viewBox="0 0 1920 1080"><defs><clipPath id="b"><rect width="1920" height="1080"/></clipPath></defs><g id="a" clip-path="url(#b)"><rect width="1920" height="1080" fill="#fff"/><path d="M424,0H-279.054L-473,1084H424Z" transform="translate(1644)" fill="#1f28cf"/><g transform="translate(904 265)"><g transform="translate(135)"><g transform="translate(100.116 56)"><path d="M0,133,15.344,62.838C6.787,52.984.995,40.906,1.962,27.375c2.79-38.99,58.114-30.412,68.875-10.734s9.484,69.6-4.424,73.112c-5.547,1.4-17.363-2.033-29.39-9.144L44.572,133Z" transform="translate(-0.116)" fill="#b28b67"/></g><path d="M135.635,20.316a9.561,9.561,0,0,0-6.775-6.711,9.129,9.129,0,0,0-2.493-.242c-.3.012-.385.1-.525-.109a2.639,2.639,0,0,1-.149-.7,13.025,13.025,0,0,0-.506-1.64,13.375,13.375,0,0,0-3.306-4.8,16.81,16.81,0,0,0-10-4.619,14.894,14.894,0,0,0-6.009.8,24.1,24.1,0,0,0-2.917,1.218c-.285.139-1.208.822-1.494.778-.316-.049-.95-.815-1.206-1.007A17.961,17.961,0,0,0,89.221,0C84.763.033,80.47.25,76.752,2.9A24.814,24.814,0,0,0,74.5,4.73c-.376.341-.74.695-1.087,1.063q-.314.334-.61.683c-.333.4-.28.526-.746.25a9.447,9.447,0,0,0-5.951-1.308,13.563,13.563,0,0,0-3.592.991,7.885,7.885,0,0,1-1.709.819,8.387,8.387,0,0,1-1.728-.749,14.483,14.483,0,0,0-7.18-.649,18.8,18.8,0,0,0-7.04,2.7,9.388,9.388,0,0,0-2.609,2.317c-.307.414-.584.851-.932,1.235-.2.225-.607.455-.716.739a15.648,15.648,0,0,0-2.984-1.286,7.517,7.517,0,0,0-4.2.156A16.7,16.7,0,0,0,26.8,16.29,18.4,18.4,0,0,0,24.347,19.5q-.5.828-.917,1.7a6.252,6.252,0,0,1-.4.886c-.23.326-.384.332-.8.475a12.938,12.938,0,0,0-5.5,3.6,12.261,12.261,0,0,0-2.847,5.9,2.94,2.94,0,0,1-.114.726c-.1.1-.529.053-.69.071a14.826,14.826,0,0,0-1.653.285,13.858,13.858,0,0,0-2.906,1.021,14.926,14.926,0,0,0-7.444,8.682A17.23,17.23,0,0,0,1.355,54.9a11.678,11.678,0,0,0,.917,1.766c.219.345.29.345.148.707-.159.4-.449.793-.637,1.186A16.741,16.741,0,0,0,.466,62.594a18.478,18.478,0,0,0-.227,6.969,9.909,9.909,0,0,0,1.1,3.058,8.769,8.769,0,0,0,.966,1.368c.19.221.391.431.6.633a3.98,3.98,0,0,1,.381.345c.25.314.3.056.174.517a20.382,20.382,0,0,1-.84,1.908c-.258.646-.491,1.3-.7,1.963A28.4,28.4,0,0,0,.893,83.445a12.573,12.573,0,0,0,.928,7.946,8,8,0,0,0,2.3,2.677,8.585,8.585,0,0,0,1.512.9c.274.127.624.182.749.441.135.279-.065.832-.111,1.143a18.621,18.621,0,0,0,.229,8.209,11.368,11.368,0,0,0,4.6,6.034c4.211,2.773,9.888,2.617,14.313.4a15.043,15.043,0,0,0,3.2-2.145c2.451,3.223,7.5,3.121,11.078,2.2A15.831,15.831,0,0,0,49.8,103.088c2.822,3.355,8.743,2.266,10.7-1.373a8.561,8.561,0,0,0,.9-2.866c.074-.522.027-1.049.082-1.568a7.988,7.988,0,0,1,.782-1.941,10.5,10.5,0,0,0,.833-3.869,19.19,19.19,0,0,0-.152-2.077,6.979,6.979,0,0,1,.217-1.825,8.734,8.734,0,0,1-3.618-.442,7.146,7.146,0,0,1-2.8-1.921,15.826,15.826,0,0,1-3.519-6.425c-1.591-5.088-.939-11.193,4.3-13.986,2.441-1.3,9.754-1.3,12.661-.654,3.057.676,6.523,7.264,6.693,7.884.106.383.052.858.413,1.113.792.562,2.1-.413,2.683-.894a10.361,10.361,0,0,0,2.35-3.054,37.287,37.287,0,0,0,3.224-7.724c.6-2.058.977-4.181,1.756-6.187a9.5,9.5,0,0,1,3.9-4.911,34.784,34.784,0,0,1,6.7-2.651,16.758,16.758,0,0,0,6.2-3.328,8.441,8.441,0,0,0,1.064-1.158c.244-.332.484-.968.855-1.179.577-.328,1.419.524,1.918.834a21.916,21.916,0,0,1,6.17,5.982,36.99,36.99,0,0,1,4.1,7.122c.814,1.916,1.323,4.369,2.755,5.939.64.7,5.393,1.125,6.933.513a8.7,8.7,0,0,0,3.782-3.2,4.863,4.863,0,0,0,.429-3.255c-.133-.657-.4-1.27-.553-1.915a5.87,5.87,0,0,0-.509-1.55,3.9,3.9,0,0,0-2.44-1.9,11.21,11.21,0,0,0,2.635-3.491,14.719,14.719,0,0,0,1.364-4.548,5.415,5.415,0,0,0-.755-3.542,9.5,9.5,0,0,0-3.1-2.51,19.855,19.855,0,0,0,4.311-4.585C135.38,28.582,136.805,24.334,135.635,20.316Z" transform="translate(55.912 25.485)" fill="#191847"/></g><g transform="translate(0 340.769)"><g transform="translate(0 77.231)"><path d="M257,226H16A16,16,0,0,1,0,210V16A16,16,0,0,1,16,0H257a16,16,0,0,1,16,16V210a16,16,0,0,1-16,16ZM56,51.033a4,4,0,0,0-4,4V170.968a4,4,0,0,0,4,4H217a4,4,0,0,0,4-4V55.032a4,4,0,0,0-4-4Z" transform="translate(80 0)" fill="#c5cfd6"/></g><path d="M235.9,117.258C224.029,76.65,215,40.916,212.718,27.572,207.275-4.248,254.58-6.1,260.833,9.712c9.464,23.936,25.986,102.58,45.837,221.369l-22.691,6.466C260.1,185.926,242.83,140.974,235.9,117.258ZM6.99,75.541C28.9,67.082,105.625,40.61,142.63,33.123c10.634-2.153,20.94-4.152,30.63-5.959,28.8-5.37,43.724,45.38,15.984,49.28-69.082,9.712-167.02,19.74-175.4,20.866a10.929,10.929,0,0,1-1.451.1C1.4,97.409-6.208,80.636,6.99,75.541Z" transform="translate(204.225 58.555)" fill="#b28b67"/><path d="M118.831,77.783a23.115,23.115,0,0,1-.321-6.031L0,12.828V0H14.094S186.073,42.8,189.856,54.862c.027.085.05.17.071.256q.088.113.174.228c22.722,30.522,36.33,179.532,40.8,190.689l-43.54,6.345C170.7,192.056,117.416,150.032,118.831,77.783Z" transform="translate(276.653)" fill="#2b44ff"/><path d="M57.919,118.74l35.794-11.992c-10.841-2.12-20.829-4.012-29.372-5.476C9.15,91.816-6.945,62.96,2.571,0h101.69C120.872,4.661,207.2,40.021,251.99,58.828c29.644,12.448,20.3,57.321,3.511,69a1.6,1.6,0,0,1-.931,1.421c-62.106,25.14-115.289,23.92-150.21,22.7-15.858-.554-27.95-1.109-35.4.806Z" transform="translate(192.785)" fill="#2b44ff"/><g transform="translate(183.003 120.121)"><path d="M8.337,8.889a3.744,3.744,0,0,0-4.781,2.455L0,23.585c0,4.924,1.68,14.371,1.68,14.371H106.8s4.1-13.231-4.731-14.286S87.4,21.765,87.4,21.765L38.542.49a1.88,1.88,0,0,0-2.482.969L32.92,8.9s-8.172,3.724-13.282,3.724Z" transform="translate(291.441 154.899)"/><path d="M10.06,11.508a3.677,3.677,0,0,0-4.644,2.625L1.79,26.9c-.081,5.115,1.381,14.9,1.381,14.9L104.4,40.152s4.163-13.808-4.321-14.765-14.093-1.748-14.093-1.748l-46.7-21.33a1.811,1.811,0,0,0-2.406,1.045l-3.147,7.779s-7.931,4-12.851,4.077Z" transform="matrix(0.391, 0.921, -0.921, 0.391, 37.898, -3.074)"/></g></g><g transform="translate(23 149)"><path d="M2.286,163.6c-2.08-1.253-4.358-5.97,1.146-9.656,13.714-9.185,33.475-25.258,36.146-30.55,5.461-10.821,24.06-116.3,24.06-116.3l38.947.151s-36.072,113.738-38.947,120.7c-4.312,10.44,4.814,26.338,8.716,34.882-6.151,2.689-9.009-.744-12.137-4.176-3.335-3.658-6.98-7.317-15.252-3.557-10.587,4.812-19.34,12.448-29.774,12.447A24.622,24.622,0,0,1,2.286,163.6ZM335.342,61.251l-54.9-31.615L297.977,0l52.8,50.307q23.042,9.6,37.759,21.2c2.207,2.6,4.609,7.581-5.772,5.352s-21.4-4.117-23.356-.821,3.8,8.351.191,12.668a1.377,1.377,0,0,1-1.106.516Q353.522,89.223,335.342,61.251Z" transform="translate(63.67 162.237)" fill="#b28b67"/><path d="M.057,4.34,15.877.246Q66.189,97.782,176.735,171.42l-46.642,66.313C54.359,165.278,4.825,88.022.057,4.34Z" transform="matrix(0.996, 0.087, -0.087, 0.996, 238.311, 5.378)" fill="#191847"/><path d="M0,207.523H143.508S93.637,89.085,93.637,6.3L50.347,0C16.326,53.443,6.718,119.243,0,207.523Z" transform="translate(167.736)" fill="#dde3e9"/><path d="M0,267.595C15.7,94.652,114.628,0,114.628,0l.034.029L114.678,0H117.5c5.072.17,15.45.614,15.45.614l10.46,29.2c1.661,53.4,19.385,215.22,19.385,215.22H68.865q.24,11.128,1.082,22.562Z" transform="translate(102.506 0)" fill="#2f3676"/><path d="M26.285,90.106H.116A454.506,454.506,0,0,1,7.2,0,478.666,478.666,0,0,0,13.51,50.4c3.409,18.037,7.707,31.4,12.773,39.7Z" transform="translate(171.271 155.646)" fill="rgba(0,0,0,0.1)"/><path d="M0,21.063,46.387,0V21.063Z" transform="translate(192.172 168.256)" fill="rgba(255,255,255,0.2)"/></g></g><g transform="translate(1431 326)"><rect width="489" height="385" rx="8" fill="#f2f2f2"/><rect width="102" height="90" rx="8" transform="translate(364 48)" fill="#fff"/><g transform="translate(378.444 65)"><ellipse cx="23" cy="17.5" rx="23" ry="17.5" transform="translate(13.556 0)" fill="#dde3e9"/><rect width="74" height="6" rx="3" transform="translate(-0.444 40)" fill="#dde3e9"/><rect width="49" height="6" rx="3" transform="translate(11.556 51)" fill="#dde3e9"/></g><path d="M8,0H481a8,8,0,0,1,8,8V30a0,0,0,0,1,0,0H0a0,0,0,0,1,0,0V8A8,8,0,0,1,8,0Z" fill="#c5cfd6"/><g transform="translate(9 10)"><circle cx="4" cy="4" r="4" transform="translate(0)" fill="#f2f2f2"/><circle cx="4" cy="4" r="4" transform="translate(12)" fill="#f2f2f2"/><circle cx="4" cy="4" r="4" transform="translate(24)" fill="#f2f2f2"/></g><g transform="translate(363.561 147)"><rect width="102" height="216" rx="8" transform="translate(0.439)" fill="#fff"/><g transform="translate(18 18)"><rect width="66" height="29" rx="4" transform="translate(0.439 0)" fill="#dde3e9"/><rect width="66" height="28" rx="4" transform="translate(0.439 38)" fill="#afb9c5"/><rect width="66" height="28" rx="4" transform="translate(0.439 74)" fill="#dde3e9"/><rect width="66" height="28" rx="4" transform="translate(0.439 148)" fill="#dde3e9"/><rect width="66" height="28" rx="4" transform="translate(0.439 111)" fill="#c5cfd6"/></g></g><g transform="translate(16 44)"><g transform="translate(0)"><rect width="379" height="52" rx="4" transform="translate(0)" fill="#fff"/><g transform="translate(8.652 15.689)"><rect width="321.719" height="7.845" rx="3" fill="#dde3e9"/><rect width="215.948" height="7.845" rx="3" transform="translate(0 13.074)" fill="#dde3e9"/></g><g transform="translate(335.999 19.149)"><circle cx="7" cy="7" r="7" fill="#dde3e9"/><circle cx="3" cy="3" r="3" transform="translate(4 4)" fill="#f2f2f2"/></g></g><g transform="translate(0 61)"><rect width="379" height="44" rx="4" transform="translate(0)" fill="#fff"/><g transform="translate(8.652 13.218)"><rect width="321.719" height="6.509" rx="3" fill="#dde3e9"/><rect width="215.948" height="6.509" rx="3" transform="translate(0 10.849)" fill="#dde3e9"/></g><g transform="translate(335.999 14.897)"><circle cx="7" cy="7" r="7" fill="#dde3e9"/><circle cx="3" cy="3" r="3" transform="translate(4 4)" fill="#f2f2f2"/></g></g><g transform="translate(0 113)"><rect width="379" height="44" rx="4" transform="translate(0)" fill="#fff"/><g transform="translate(8.652 13.516)"><rect width="321.719" height="6.509" rx="3" fill="#dde3e9"/><rect width="215.948" height="6.509" rx="3" transform="translate(0 10.849)" fill="#dde3e9"/></g><g transform="translate(335.999 15.195)"><circle cx="7" cy="7" r="7" fill="#dde3e9"/><circle cx="3" cy="3" r="3" transform="translate(4 4)" fill="#afb9c5"/></g></g><g transform="translate(0 270)"><rect width="379" height="44" rx="4" transform="translate(0 0)" fill="#fff"/><g transform="translate(8.652 13.409)"><rect width="321.719" height="6.509" rx="3" fill="#dde3e9"/><rect width="215.948" height="6.509" rx="3" transform="translate(0 10.849)" fill="#dde3e9"/></g><g transform="translate(335.999 15.088)"><circle cx="7" cy="7" r="7" fill="#dde3e9"/><circle cx="3" cy="3" r="3" transform="translate(4 4)" fill="#f2f2f2"/></g></g><g transform="translate(0 218)"><rect width="379" height="43" rx="4" transform="translate(0)" fill="#fff"/><g transform="translate(8.652 13.111)"><rect width="321.719" height="6.509" rx="3" fill="#dde3e9"/><rect width="215.948" height="6.509" rx="3" transform="translate(0 10.849)" fill="#dde3e9"/></g><g transform="translate(335.999 14.79)"><circle cx="7" cy="7" r="7" fill="#dde3e9"/><circle cx="3" cy="3" r="3" transform="translate(4 4)" fill="#f2f2f2"/></g></g><g transform="translate(0 166)"><rect width="379" height="43" rx="4" transform="translate(0)" fill="#fff"/><g transform="translate(8.652 12.814)"><rect width="321.719" height="6.509" rx="3" fill="#dde3e9"/><rect width="215.948" height="6.509" rx="3" transform="translate(0 10.849)" fill="#dde3e9"/></g><g transform="translate(335.999 14.493)"><circle cx="7" cy="7" r="7" fill="#dde3e9"/><circle cx="3" cy="3" r="3" transform="translate(4 4)" fill="#f2f2f2"/></g></g></g></g><g transform="translate(1590.732 144)"><path d="M0,44.272,47.8,7.906c8.044-6.12,21.09-6.12,29.134,0l127.269,96.818c7.722,5.874,12.059,13.84,12.059,22.145V768.194" transform="translate(60 12)" fill="none" stroke="#cbcbcb" stroke-miterlimit="10" stroke-width="8"/><rect width="59" height="7" rx="3" transform="translate(246.267 778.745)" fill="#afb9c5"/><g transform="translate(47.833 2) rotate(45)"><path d="M35.5,0H61.947a35.5,35.5,0,0,1,35.5,35.5V61a0,0,0,0,1,0,0H0a0,0,0,0,1,0,0V35.5A35.5,35.5,0,0,1,35.5,0Z" fill="#c5cfd6"/><ellipse cx="48.724" cy="6.5" rx="48.724" ry="6.5" transform="translate(0.264 53.562)" fill="#f2f2f2"/></g></g><g transform="translate(1657.569 452)"><rect width="193" height="344" rx="8" transform="translate(0.431)" fill="#dde3e9"/><circle cx="15" cy="15" r="15" transform="translate(81.431 304)" fill="#fff"/><g transform="translate(81.309 18)"><circle cx="2" cy="2" r="2" transform="translate(0.121)" fill="#fff"/><rect width="21" height="4" rx="2" transform="translate(9.121)" fill="#fff"/></g><g transform="translate(14.431 20)"><rect width="165" height="70" rx="4" fill="#fff"/><g transform="translate(8.569 20.998)"><rect width="107" height="10.499" rx="3" fill="#dde3e9"/><rect width="71.822" height="10.499" rx="3" transform="translate(0 17.499)" fill="#dde3e9"/></g><g transform="translate(142.118 29)"><circle cx="7" cy="7" r="7" transform="translate(-0.117)" fill="#dde3e9"/><circle cx="3" cy="3" r="3" transform="translate(3.883 4)" fill="#f2f2f2"/></g><g transform="translate(0 81)"><rect width="165" height="53" rx="4" fill="#fff"/><g transform="translate(38.569 15.695)"><rect width="107" height="8.166" rx="3" fill="#dde3e9"/><rect width="71.822" height="8.166" rx="3" transform="translate(0 13.61)" fill="#dde3e9"/></g><circle cx="12" cy="12" r="12" transform="translate(9 15)" fill="#c5cfd6"/></g><g transform="translate(0 146)"><rect width="165" height="53" rx="4" fill="#fff"/><g transform="translate(8.569 15.505)"><rect width="107" height="8.166" rx="3" fill="#dde3e9"/><rect width="71.822" height="8.166" rx="3" transform="translate(0 13.61)" fill="#afb9c5"/></g><g transform="translate(142.118 19)"><circle cx="7" cy="7" r="7" transform="translate(-0.117)" fill="#dde3e9"/><circle cx="3" cy="3" r="3" transform="translate(3.883 4)" fill="#f2f2f2"/></g></g><g transform="translate(0 211)"><rect width="165" height="53" rx="4" transform="translate(0 0)" fill="#fff"/><g transform="translate(38.569 15.314)"><rect width="107" height="8.166" rx="3" fill="#dde3e9"/><rect width="71.822" height="8.166" rx="3" transform="translate(0 13.61)" fill="#dde3e9"/></g><circle cx="12" cy="12" r="12" transform="translate(9 14)" fill="#c5cfd6"/></g></g></g></g></svg>