<svg xmlns="http://www.w3.org/2000/svg" xmlns:xlink="http://www.w3.org/1999/xlink" width="834" height="1112" viewBox="0 0 834 1112"><defs><clipPath id="b"><rect width="834" height="1112"/></clipPath></defs><g id="a" clip-path="url(#b)"><rect width="834" height="1112" fill="#0f0f0f"/><g transform="translate(587.803 303)"><rect width="415" height="346" rx="8" transform="translate(0.197)" fill="#f2f2f2"/><rect width="86" height="81" rx="8" transform="translate(309.197 43)" fill="#fff"/><g transform="translate(320.993 58)"><ellipse cx="20" cy="16" rx="20" ry="16" transform="translate(11.204)" fill="#dde3e9"/><rect width="63" height="6" rx="3" transform="translate(0.204 36)" fill="#dde3e9"/><rect width="42" height="6" rx="3" transform="translate(10.204 46)" fill="#dde3e9"/></g><path d="M8,0H407a8,8,0,0,1,8,8V27a0,0,0,0,1,0,0H0a0,0,0,0,1,0,0V8A8,8,0,0,1,8,0Z" transform="translate(0.197)" fill="#c5cfd6"/><g transform="translate(9 10)"><circle cx="4" cy="4" r="4" transform="translate(0.197)" fill="#f2f2f2"/><circle cx="4" cy="4" r="4" transform="translate(12.197)" fill="#f2f2f2"/><circle cx="4" cy="4" r="4" transform="translate(24.197)" fill="#f2f2f2"/></g><g transform="translate(309.363 132)"><rect width="86" height="194" rx="8" transform="translate(-0.166)" fill="#fff"/><g transform="translate(18 18)"><rect width="50" height="26" rx="4" transform="translate(-0.166)" fill="#dde3e9"/><rect width="50" height="25" rx="4" transform="translate(-0.166 34)" fill="#afb9c5"/><rect width="50" height="25" rx="4" transform="translate(-0.166 67)" fill="#dde3e9"/><rect width="50" height="25" rx="4" transform="translate(-0.166 133)" fill="#dde3e9"/><rect width="50" height="25" rx="4" transform="translate(-0.166 100)" fill="#c5cfd6"/></g></g><g transform="translate(16 44)"><rect width="305" height="47" rx="4" transform="translate(0.197)" fill="#fff"/><g transform="translate(9 14.1)"><rect width="247.539" height="7.05" rx="3" fill="#dde3e9"/><rect width="166.156" height="7.05" rx="3" transform="translate(0 11.75)" fill="#dde3e9"/></g><g transform="translate(268.065 16.5)"><circle cx="7" cy="7" r="7" fill="#dde3e9"/><circle cx="3" cy="3" r="3" transform="translate(4 4)" fill="#f2f2f2"/></g><g transform="translate(0 55)"><rect width="305" height="39" rx="4" transform="translate(0.197)" fill="#fff"/><g transform="translate(9 11.7)"><rect width="247.539" height="5.85" rx="2.925" fill="#dde3e9"/><rect width="166.156" height="5.85" rx="2.925" transform="translate(0 9.75)" fill="#dde3e9"/></g><g transform="translate(268.065 12.5)"><circle cx="7" cy="7" r="7" fill="#dde3e9"/><circle cx="3" cy="3" r="3" transform="translate(4 4)" fill="#f2f2f2"/></g></g><g transform="translate(0 102)"><rect width="305" height="39" rx="4" transform="translate(0.197)" fill="#fff"/><g transform="translate(9 11.7)"><rect width="247.539" height="5.85" rx="2.925" fill="#dde3e9"/><rect width="166.156" height="5.85" rx="2.925" transform="translate(0 9.75)" fill="#dde3e9"/></g><g transform="translate(268.065 12.5)"><circle cx="7" cy="7" r="7" fill="#dde3e9"/><circle cx="3" cy="3" r="3" transform="translate(4 4)" fill="#afb9c5"/></g></g><g transform="translate(0 243)"><rect width="305" height="39" rx="4" transform="translate(0.197)" fill="#fff"/><g transform="translate(9 11.7)"><rect width="247.539" height="5.85" rx="2.925" fill="#dde3e9"/><rect width="166.156" height="5.85" rx="2.925" transform="translate(0 9.75)" fill="#dde3e9"/></g><g transform="translate(268.065 12.5)"><circle cx="7" cy="7" r="7" fill="#dde3e9"/><circle cx="3" cy="3" r="3" transform="translate(4 4)" fill="#f2f2f2"/></g></g><g transform="translate(0 196)"><rect width="305" height="39" rx="4" transform="translate(0.197)" fill="#fff"/><g transform="translate(9 11.7)"><rect width="247.539" height="5.85" rx="2.925" fill="#dde3e9"/><rect width="166.156" height="5.85" rx="2.925" transform="translate(0 9.75)" fill="#dde3e9"/></g><g transform="translate(268.065 12.5)"><circle cx="7" cy="7" r="7" fill="#dde3e9"/><circle cx="3" cy="3" r="3" transform="translate(4 4)" fill="#f2f2f2"/></g></g><g transform="translate(0 149)"><rect width="305" height="39" rx="4" transform="translate(0.197)" fill="#fff"/><g transform="translate(9 11.7)"><rect width="247.539" height="5.85" rx="2.925" fill="#dde3e9"/><rect width="166.156" height="5.85" rx="2.925" transform="translate(0 9.75)" fill="#dde3e9"/></g><g transform="translate(268.065 12.5)"><circle cx="7" cy="7" r="7" fill="#dde3e9"/><circle cx="3" cy="3" r="3" transform="translate(4 4)" fill="#f2f2f2"/></g></g></g></g><g transform="translate(703 455)"><rect width="159" height="302" rx="8" transform="translate(48)" fill="#dde3e9"/><circle cx="15" cy="15" r="15" transform="translate(112 253)" fill="#fff"/><g transform="translate(112 16)"><circle cx="2" cy="2" r="2" fill="#fff"/><rect width="21" height="4" rx="2" transform="translate(9)" fill="#fff"/></g><g transform="translate(62 20)"><rect width="131" height="54" rx="4" fill="#fff"/><g transform="translate(9 16.2)"><rect width="73" height="8.1" rx="3" fill="#dde3e9"/><rect width="49" height="8.1" rx="3" transform="translate(0 13.5)" fill="#dde3e9"/></g><g transform="translate(110 20)"><circle cx="7" cy="7" r="7" fill="#dde3e9"/><circle cx="3" cy="3" r="3" transform="translate(4 4)" fill="#f2f2f2"/></g><g transform="translate(0 62)"><rect width="131" height="42" rx="4" fill="#fff"/><g transform="translate(39 12.6)"><rect width="73" height="6.3" rx="3" fill="#dde3e9"/><rect width="49" height="6.3" rx="3" transform="translate(0 10.5)" fill="#dde3e9"/></g><circle cx="12" cy="12" r="12" transform="translate(9 9)" fill="#c5cfd6"/></g><g transform="translate(0 112)"><rect width="131" height="42" rx="4" fill="#fff"/><g transform="translate(9 12.6)"><rect width="73" height="6.3" rx="3" fill="#dde3e9"/><rect width="49" height="6.3" rx="3" transform="translate(0 10.5)" fill="#afb9c5"/></g><g transform="translate(110 14)"><circle cx="7" cy="7" r="7" fill="#dde3e9"/><circle cx="3" cy="3" r="3" transform="translate(4 4)" fill="#f2f2f2"/></g></g><g transform="translate(0 162)"><rect width="131" height="42" rx="4" fill="#fff"/><g transform="translate(39 12.6)"><rect width="73" height="6.3" rx="3" fill="#dde3e9"/><rect width="49" height="6.3" rx="3" transform="translate(0 10.5)" fill="#dde3e9"/></g><circle cx="12" cy="12" r="12" transform="translate(9 9)" fill="#c5cfd6"/></g></g></g></g></svg>