<svg xmlns="http://www.w3.org/2000/svg" xmlns:xlink="http://www.w3.org/1999/xlink" width="834" height="1112" viewBox="0 0 834 1112"><defs><clipPath id="a"><path d="M235.812,437.243A176.879,176.879,0,0,0,406.057,308.488c4.287-15.237,70.775-65.477,70.775-82.083C476.832,128.833,333.47,0,235.812,0S-65.316,395.27,20.726,437.243c51.391,25.069,85.1-56.514,91.957-49.869A176.323,176.323,0,0,0,235.812,437.243Z" fill="none"/></clipPath><clipPath id="b"><path d="M115.659,26.92c.987-2.834,7.712-11.613-4.266-19.978-2.152-1.5-5.708,0-8.789-.954-2.318-.714-3.1-3.937-5.757-4.5C94.09.906,91.087,3.55,87.972,3.318,86.062,3.175,83.117.21,81.129.051,77.581-.235,74.358,3.1,70.893,3.318c-2.009.124-4.339-3.1-6.333-3.267-4.852-.415-9.272,1.84-13.548,2.523-3.941.63-5.773,8.679-8.676,10.581C33.227,19.125,26.089,20.794,18.7,26.92,9.91,34.2,8.229,39.622,4.588,44.475S-1.3,66.427.822,77.386C2.075,83.85,5.338,101.5,12.628,108.338c9.978,9.355,30.279,12.127,32.081,10.879,8.346-5.781,27.055-37.754,40.324-49.054C94.79,61.854,109.546,44.475,115.659,26.92Z" transform="translate(0 0)" fill="#ff9b21"/></clipPath><clipPath id="d"><rect width="834" height="1112"/></clipPath></defs><g id="c" clip-path="url(#d)"><rect width="834" height="1112" fill="#fff"/><path d="M608,0H-239.27L-473,1116H608Z" transform="translate(226 -4)" fill="#2026a2"/><ellipse cx="106" cy="93" rx="106" ry="93" transform="translate(-137 292)" fill="#c4a027"/><g transform="translate(-555.001 27.744)"><g transform="translate(932.001 292.256)"><ellipse cx="208.034" cy="207.851" rx="208.034" ry="207.851" transform="translate(76.905 59.998)" fill="rgba(243,46,104,0.8)"/><path d="M235.812,437.243A176.879,176.879,0,0,0,406.057,308.488c4.287-15.237,70.775-65.477,70.775-82.083C476.832,128.832,333.47,0,235.812,0S-65.316,395.27,20.726,437.243c51.391,25.069,85.1-56.514,91.957-49.869A176.323,176.323,0,0,0,235.812,437.243Z" transform="translate(0 0)" fill="none"/><g transform="translate(0 0)" clip-path="url(#a)"><g transform="translate(-37.224 -36.475)"><g transform="translate(187.172)"><g transform="translate(123.259 70.522)"><path d="M0,166.067,18.859,78.46C8.342,66.156,1.223,51.076,2.412,34.181,5.84-14.5,73.839-3.792,87.064,20.778s11.656,86.9-5.438,91.29C74.809,113.82,60.286,109.53,45.5,100.65l9.278,65.416Z" transform="translate(0 0)" fill="#784931"/></g><g transform="translate(93.009 50.542)"><path d="M115.659,26.92c.987-2.834,7.712-11.613-4.266-19.978-2.152-1.5-5.708,0-8.789-.954-2.318-.714-3.1-3.937-5.757-4.5C94.09.906,91.087,3.55,87.972,3.318,86.062,3.175,83.117.21,81.129.051,77.581-.235,74.358,3.1,70.893,3.318c-2.009.124-4.339-3.1-6.333-3.267-4.852-.415-9.272,1.84-13.548,2.523-3.941.63-5.773,8.679-8.676,10.581C33.227,19.125,26.089,20.794,18.7,26.92,9.91,34.2,8.229,39.622,4.588,44.475S-1.3,66.427.822,77.386C2.075,83.85,5.338,101.5,12.628,108.338c9.978,9.355,30.279,12.127,32.081,10.879,8.346-5.781,27.055-37.754,40.324-49.054C94.79,61.854,109.546,44.475,115.659,26.92Z" transform="translate(0 0)" fill="#ff9b21"/><g transform="translate(0 0)" clip-path="url(#b)"><path d="M23.265,50.071C28.756,30.664,34.1.706,34.1.706L40.846,0S29.679,46.953,23.532,65.757c-4.154,12.707-7.538,23.473-10.449,32.285,5.993-13.227,13.7-30.2,20.668-47.605C41.247,31.708,49.7,2.469,49.7,2.469h6.783S40.456,48,32.37,66.064C23.7,85.426,17.473,100.131,12.51,110A534.416,534.416,0,0,0,47.243,51.4C55,36.245,65.5,4.99,65.5,4.99l6.313,2.692s-15.9,39.558-24.57,55.174c-18.84,33.93-36.828,54.4-43.116,60.212-1.088,1.005-1.452,1.239-1.192.725a.247.247,0,0,1-.191-.154,16.465,16.465,0,0,1-1.323,1.753c-.5.571-.861.846-1.094.846C-2.38,126.237,12.252,88.988,23.265,50.071Z" transform="translate(35.33 -3.358)" fill="rgba(0,0,0,0.2)"/></g></g></g><g transform="translate(0 425.406)"><path d="M228.8-4.352c-43.5,35.483-26.436,347.215-29.337,351.135-1.934,2.613-207,44.2-207,44.2L-1.6,415.113s239.938-11.542,253.895-29.352c19.983-25.5,49.043-285.48,49.043-285.48Z" transform="matrix(0.574, -0.819, 0.819, 0.574, 138.582, 189.917)" fill="#b28b67"/><path d="M-7.371,382.1,3.088,420.97c119.268,13.9,197.852-2.946,225.481-29.254s49.171-284.7,49.171-284.7l-77.6-110.82c-103.557,78.146-41.35,334.6-43.99,340.461S90.633,347.054-7.371,382.1Z" transform="matrix(0.574, -0.819, 0.819, 0.574, 151.857, 166.269)" fill="#2f3676"/><g transform="translate(460.086 359.556) rotate(20)"><path d="M4.474,5.033A2,2,0,0,0,1.908,6.381L0,13.106A64.242,64.242,0,0,0,.9,21H57.3s2.2-7.268-2.538-7.848-7.87-1.047-7.87-1.047L20.68.419a1,1,0,0,0-1.332.532L17.663,5.039s-4.385,2.046-7.127,2.046Z" transform="translate(1 19)" fill="#e4e4e4"/></g><path d="M234.2,0,116.088,282.6,0,521.521H27.389L327.043,0Z" transform="translate(62.533)" fill="#997659"/><g transform="translate(54.782 452.704)"><path d="M10.211,11.026a4.568,4.568,0,0,0-5.855,3.068L0,29.391C0,35.544,2.057,47.35,2.057,47.35H130.8s5.018-16.534-5.794-17.853-17.963-2.381-17.963-2.381L47.2.53a2.285,2.285,0,0,0-3.04,1.211l-3.846,9.3s-10.009,4.654-16.267,4.654Z" transform="translate(2.283 43.646)" fill="#e4e4e4"/></g><path d="M0,471.888l60.859,11.374C107.914,414.315,304.844,131.607,326.435,0H190.951C118.846,95.139,44.854,401.8,0,471.888Z" transform="translate(73.016 0)" fill="#5c63ab"/></g><g transform="translate(50.217 186.542)"><path d="M72.561,264.5c-3.112-5.217-6.65-10.432-17.4-7.772-19.179,4.748-35.443,16.93-53.328.5-2.2-2.019-3.809-8.333,3.69-11.572C24.2,237.583,51.8,222.478,56.27,216.612q9.155-12,56.736-136.99l46.775,9.248Q89.221,219.924,84.1,227.787c-7.681,11.8-.514,33.412,2.132,44.8a14.455,14.455,0,0,1-3.256.406C77.348,272.988,75.1,268.743,72.561,264.5ZM447.386,69.651l82.707-36.2Q551.827,11.867,572.068.641c4.035-1.28,10.927-1.667,3.573,9.039s-14.606,22.3-11.669,26.047,11.451-.389,14.814,5.712q3.365,6.1-43.046,14.6L473.795,103.37Z" transform="translate(4.565 106.92)" fill="#b28b67"/><path d="M.018,5.152,19.386.07c46.45,37.658,72.629,135.6,102.322,146.272,28.074,10.088,65.272-5.305,109.319-25.549l16.637,29.789c-37.416,48.16-122.137,93.494-159.692,75.13C27.931,196.352,4.03,74.819.018,5.152Z" transform="matrix(0.996, 0.087, -0.087, 0.996, 291.905, 6.996)" fill="#1f28cf"/><path d="M0,259.338H174.644c7.98,0,6.477-11.485,5.323-17.28C166.653,175.176,114.68,103.079,114.68,7.873L64.3,0C22.637,66.787,8.228,149.016,0,259.338Z" transform="translate(205.432)" fill="#dde3e9"/><path d="M0,322.714Q35.369,104.091,204.857,0H224.8s67.836,230.46,37.4,307.111H105c2.488-37.393,10.462-76.934,21.386-115.491Q72.98,287.626,36.606,329.86Z" transform="translate(61.63)" fill="#2b44ff"/></g></g></g></g></g></g></svg>